<?xml version="1.0" encoding="UTF-8"?>
<svg xmlns="http://www.w3.org/2000/svg" width="800" height="300" viewBox="0 0 800 300" font-family="Segoe UI, Helvetica, Arial, sans-serif">
  <defs>
    <style><![CDATA[
      .box { fill: #f8fafc; stroke: #94a3b8; stroke-width: 1.2; }
      .boxMuted { fill: #f1f5f9; stroke: #cbd5e1; stroke-width: 1; }
      .label { fill: #0f172a; font-size: 11px; font-weight: 600; }
      .hint { fill: #64748b; font-size: 9px; }
      .title { fill: #0f172a; font-size: 13px; font-weight: 700; }
      .cap { fill: #475569; font-size: 10px; font-weight: 600; letter-spacing: 0.06em; }
      .pill { fill: #eef2ff; stroke: #818cf8; stroke-width: 1; }
      .btn { fill: #ecfdf5; stroke: #22c55e; stroke-width: 1; }
      .tiny { fill: #475569; font-size: 8px; }
    ]]></style>
  </defs>
  <text x="8" y="18" class="cap">FIGURE 2 - RED FLAGS</text>
  <g transform="translate(8, 28)">
    <rect class="box" x="0" y="0" width="784" height="264" rx="6"/>
    <text x="12" y="28" class="title">Red Flags</text>
    <text x="12" y="46" class="hint" font-size="8px">Machines that need attention (failed checks).</text>
    <rect class="pill" x="420" y="12" width="96" height="22" rx="10"/>
    <text x="432" y="27" class="tiny">Refresh ~1 min</text>
    <rect class="pill" x="524" y="12" width="120" height="22" rx="10"/>
    <text x="536" y="27" class="tiny">Cache timestamp</text>
    <rect class="btn" x="656" y="12" width="112" height="22" rx="4"/>
    <text x="678" y="27" class="label" font-size="8px">Refresh now</text>

    <rect class="boxMuted" x="12" y="56" width="760" height="68" rx="4"/>
    <text x="20" y="76" class="label" font-size="9px">Compare preset</text>
    <rect class="box" x="20" y="84" width="132" height="22" rx="3"/>
    <text x="28" y="99" class="tiny">Today vs Yesterday</text>
    <rect class="box" x="160" y="84" width="80" height="22" rx="3"/>
    <text x="168" y="99" class="tiny">Range A/B …</text>
    <text x="20" y="118" class="hint" font-size="8px">Date ranges feed comparisons when KPI wiring lands.</text>

    <rect class="box" x="12" y="132" width="760" height="120" rx="4"/>
    <line x1="12" y1="158" x2="772" y2="158" stroke="#cbd5e1"/>
    <text x="20" y="152" class="label" font-size="8px">Machine</text>
    <text x="180" y="152" class="label" font-size="8px">Location</text>
    <text x="300" y="152" class="label" font-size="8px">Operator</text>
    <text x="420" y="152" class="label" font-size="8px">Min since tx</text>
    <text x="460" y="148" class="label" font-size="7px">Today / Trend</text>
    <text x="460" y="158" class="hint" font-size="6px">Score · trend · variance</text>
    <text x="600" y="152" class="label" font-size="8px">Reasons</text>
    <text x="20" y="182" class="hint" font-size="8px">Vend-A12</text>
    <text x="180" y="182" class="hint" font-size="8px">Farwaniya</text>
    <text x="300" y="182" class="hint" font-size="8px">Ahmed</text>
    <text x="420" y="182" class="hint" font-size="8px">142</text>
    <text x="452" y="176" class="hint" font-size="6px">[▂] Score · [↗] Trend · [◎] Var.</text>
    <text x="452" y="186" class="hint" font-size="6px">green/red per rule · ↑% bands</text>
    <text x="600" y="176" class="hint" font-size="7px">Stale transaction</text>
    <text x="600" y="188" class="hint" font-size="7px">Below target</text>
    <text x="20" y="228" class="hint" font-size="8px">(more rows)</text>
  </g>
</svg>
